<svg xmlns="http://www.w3.org/2000/svg" viewBox="0 0 498.4 107.78"><g id="Layer_2" data-name="Layer 2"><g id="Layer_1-2" data-name="Layer 1"><path d="M82.54,41.54a41.26,41.26,0,0,0-82-6.65C-.43,41.15.26,47.45,0,52.39,0,58,0,62.26,0,66.53a41.17,41.17,0,0,0,36.07,40.91c22.94,3,44.11-13.8,46.15-36.84C83.11,61,82.41,51.23,82.54,41.54ZM3.18,44.07C2.69,31.56,6.89,20.75,16.61,12.3a37.66,37.66,0,0,1,21.21-9c1.53-.16,1.66.32,1.47,1.64a54.75,54.75,0,0,1-13,28.15A78.09,78.09,0,0,1,5,50.37c-1.42.81-2,.78-1.87-1.07C3.28,47.64,3.18,46,3.18,44.07Zm12,50.06A37.63,37.63,0,0,1,3.18,66c0-2.9.1-5.79,0-8.68a3.25,3.25,0,0,1,2-3.5C16.85,47.6,26.7,39.27,33.94,28.07A54.57,54.57,0,0,0,42.28,6.38c.09-.55.24-1.1.42-1.94C49.18,9.23,53.26,15.2,53.86,23.12c.82,10.79-3.76,19.56-11.08,27C38,55,32.84,59.41,29.41,65.42,25,73.2,23,81.35,25.79,90.17a28.92,28.92,0,0,0,7.6,12c.5.5,1,1,1.87,2A37.13,37.13,0,0,1,15.14,94.13ZM79.32,58.67c-.13,1.8,0,3.61,0,5.06.43,14.59-5,26-16.64,34.24a37.62,37.62,0,0,1-17.73,6.51c-1.83.23-1.89-.48-1.67-1.89a55,55,0,0,1,12.34-27.1,78.15,78.15,0,0,1,21.77-18C79,56.54,79.45,56.8,79.32,58.67ZM77,54.13A78,78,0,0,0,53.31,73.22,58.47,58.47,0,0,0,39.92,103.4c-6.78-5-11.36-10.93-12-19.14-.84-9.81,3.59-17.62,9.86-24.63,3.52-3.94,7.84-7.1,11-11.36,5.09-6.83,8.42-14.27,8.39-23a27.1,27.1,0,0,0-7.9-19.36A11.64,11.64,0,0,1,47.4,4.1a26.76,26.76,0,0,1,13,4.29C72.67,16,79.1,27,79.29,41.49c0,2.89-.12,5.79.06,8.68C79.47,52.17,78.73,53.19,77,54.13Z"/><path d="M168.19,24a31.29,31.29,0,0,1,7.15,10.17,30.12,30.12,0,0,1,0,23.89,31,31,0,0,1-7.15,10.14A32.74,32.74,0,0,1,157.56,75a33.82,33.82,0,0,1-12.51,2.34,34.84,34.84,0,0,1-6.31-.56,45.75,45.75,0,0,1,4.91,5.09,43.09,43.09,0,0,0,5.21,5.42,14.65,14.65,0,0,0,6.76,3.3q3.91.84,9.66-1.09-6.57,3.66-11.12,3.43a13.79,13.79,0,0,1-7.85-2.73,42.35,42.35,0,0,1-6.13-5.72c-1.24-1.34-2.48-2.58-3.74-3.74a18.68,18.68,0,0,0-4-2.85,10.16,10.16,0,0,0-4.77-1.11,7.07,7.07,0,0,0-2.59.45,8.56,8.56,0,0,0-1.94,1,13.36,13.36,0,0,0-1.17.91l-.12.11a12,12,0,0,1,3-3.29,9.78,9.78,0,0,1,4.49-2.07l.68-.08a32.6,32.6,0,0,1-8-5.62,31,31,0,0,1-7.16-10.14,30.12,30.12,0,0,1,0-23.89A31.32,31.32,0,0,1,121.91,24a33.07,33.07,0,0,1,10.62-6.78,34.36,34.36,0,0,1,25,0A33.22,33.22,0,0,1,168.19,24ZM145.05,76.27a25.92,25.92,0,0,0,11.4-2.34,22.36,22.36,0,0,0,8-6.46,27.86,27.86,0,0,0,4.73-9.59,42.47,42.47,0,0,0,1.55-11.7,42.72,42.72,0,0,0-1.55-11.72,28.47,28.47,0,0,0-4.73-9.66,22.22,22.22,0,0,0-8-6.53,28.71,28.71,0,0,0-22.8,0,22.11,22.11,0,0,0-8,6.53,28.85,28.85,0,0,0-4.73,9.66,42.34,42.34,0,0,0-1.57,11.72,42.09,42.09,0,0,0,1.57,11.7,28.22,28.22,0,0,0,4.73,9.59,22.24,22.24,0,0,0,8,6.46A25.89,25.89,0,0,0,145.05,76.27Zm20.23,5.43h0Z"/><path d="M227.71,71.74c0,1.46.25,2.35.76,2.68a2,2,0,0,0,1.87.07,14,14,0,0,0,2.32-1.13,8.57,8.57,0,0,1-3.15,2.57,9,9,0,0,1-4,.94,5.1,5.1,0,0,1-3.45-1.21,4.89,4.89,0,0,1-1.42-3.92v-6a19.62,19.62,0,0,1-7.09,8.07,18.77,18.77,0,0,1-10.5,3.06h-.22a16.81,16.81,0,0,1-8.76-2.26q-6.57-4-7.25-12.46V39.43a4.51,4.51,0,0,0-4.49-4.5v-.15h6.08a5.41,5.41,0,0,1,5.43,5.44v21c0,.33,0,.67,0,1a23.29,23.29,0,0,0,1.17,6.72,12.68,12.68,0,0,0,3,5,6.57,6.57,0,0,0,4.78,1.9h.22a17.69,17.69,0,0,0,11-3.62,18.45,18.45,0,0,0,6.58-9.36V39.43a4.37,4.37,0,0,0-1.32-3.21,4.23,4.23,0,0,0-3.17-1.32v-.15h6.12a5.46,5.46,0,0,1,5.43,5.47V71.74Z"/><path d="M273.31,71.78c0,1.45.25,2.35.74,2.68a2,2,0,0,0,1.85.07,17.64,17.64,0,0,0,2.32-1.09A8.54,8.54,0,0,1,275.07,76a9.06,9.06,0,0,1-4,1,5.15,5.15,0,0,1-3.45-1.21,5,5,0,0,1-1.42-4V69.47a18.92,18.92,0,0,1-4.64,4.44,17.56,17.56,0,0,1-7.74,2.89,24.06,24.06,0,0,1-3.24.22q-6.84,0-11-3.89a10.65,10.65,0,0,1-3-9.06,9.33,9.33,0,0,1,1.62-4.2,13.78,13.78,0,0,1,5.5-4.59q3.94-2.07,11.26-2.45a35.59,35.59,0,0,1,6.57.32,25.78,25.78,0,0,1,4.64,1.11V49.2A16.56,16.56,0,0,0,265,42.9a12.71,12.71,0,0,0-3.57-5,8.23,8.23,0,0,0-5.49-2A10.43,10.43,0,0,0,251,37a10.14,10.14,0,0,0-3.19,2.63,13.72,13.72,0,0,0-1.88,3.15,21.21,21.21,0,0,0-1,2.72,2.42,2.42,0,0,1-2.35,1.81,2.46,2.46,0,0,1-2.45-2.46,2.45,2.45,0,0,1,.19-1A13,13,0,0,1,241.53,41a11.08,11.08,0,0,1,2.56-3,13.69,13.69,0,0,1,4.57-2.38,28.77,28.77,0,0,1,15.55.27,14,14,0,0,1,5.34,3.24,11.89,11.89,0,0,1,2.89,4.64,17,17,0,0,1,.87,5.4Zm-19.59,4a17,17,0,0,0,8.34-3.53,16.47,16.47,0,0,0,4.15-4.7V55.32a29.14,29.14,0,0,0-5.45-1.27,25.3,25.3,0,0,0-5.87-.17q-5,.61-7.36,2.74a9.81,9.81,0,0,0-3,4.53,16.93,16.93,0,0,0-.72,3.83,4.21,4.21,0,0,0,0,.45,11.22,11.22,0,0,0,.49,4.36,8.91,8.91,0,0,0,2.94,4.53C248.67,75.59,250.85,76.07,253.72,75.74Z"/><path d="M311.85,35.27a17.6,17.6,0,0,0-11,3.63,18.57,18.57,0,0,0-6.63,9.36v24a4.31,4.31,0,0,0,1.32,3.19,4.39,4.39,0,0,0,3.21,1.3v.15h-16v-.15a4.47,4.47,0,0,0,4.49-4.49V39.43a4.51,4.51,0,0,0-4.49-4.53v-.15h6.07a5.19,5.19,0,0,1,3.85,1.6,5.3,5.3,0,0,1,1.59,3.87v5.13a19.73,19.73,0,0,1,7.1-8.08,18.83,18.83,0,0,1,10.49-3.05h.26a16.87,16.87,0,0,1,8.23,2,14.5,14.5,0,0,1,5.7,5.53,15.83,15.83,0,0,1,2.08,8.19V72.23a4.47,4.47,0,0,0,4.49,4.49v.15h-16v-.15a4.34,4.34,0,0,0,3-1.17,4.41,4.41,0,0,0,1.41-3V49.92a24.72,24.72,0,0,0-1-7.13,13.1,13.1,0,0,0-3-5.44,6.61,6.61,0,0,0-4.95-2.08Z"/><path d="M346.16,69.43c.23,2.12,1.16,3.41,2.8,3.89a6.27,6.27,0,0,0,5.07-.81,7.28,7.28,0,0,0,3.38-5.11h.08a8.66,8.66,0,0,1-2.25,5.68,11.45,11.45,0,0,1-4.76,3,14.83,14.83,0,0,1-5,.81,6.78,6.78,0,0,1-3.21-.74,5.52,5.52,0,0,1-2.31-2.26,8.13,8.13,0,0,1-.86-4V35.8h-4.95v-1h1.55a8.7,8.7,0,0,0,4-.89,11,11,0,0,0,3-2.17,15.34,15.34,0,0,0,2-2.59A21.44,21.44,0,0,0,346.16,26v8.72h8.5v1h-8.5Z"/><path d="M405.88,71.74c0,1.46.25,2.35.75,2.68a2,2,0,0,0,1.87.07,13.66,13.66,0,0,0,2.32-1.13,8.41,8.41,0,0,1-3.15,2.57,9,9,0,0,1-4,.94,5.1,5.1,0,0,1-3.45-1.21,4.86,4.86,0,0,1-1.42-3.92v-6a19.64,19.64,0,0,1-7.1,8.07,18.76,18.76,0,0,1-10.49,3.06H381a16.8,16.8,0,0,1-8.75-2.26q-6.57-4-7.25-12.46V39.43a4.51,4.51,0,0,0-4.49-4.5v-.15h6.07A5.43,5.43,0,0,1,372,40.22v21c0,.33,0,.67,0,1a22.63,22.63,0,0,0,1.17,6.72,12.45,12.45,0,0,0,3,5,6.55,6.55,0,0,0,4.77,1.9h.23a17.67,17.67,0,0,0,11-3.62,18.47,18.47,0,0,0,6.59-9.36V39.43a4.37,4.37,0,0,0-1.32-3.21,4.25,4.25,0,0,0-3.17-1.32v-.15h6.11a5.21,5.21,0,0,1,3.83,1.6,5.28,5.28,0,0,1,1.61,3.87V71.74Z"/><path d="M448.46,76.72a4.34,4.34,0,0,0,3-1.17,4.58,4.58,0,0,0,1.45-3V49.92a24.39,24.39,0,0,0-1-7.13,13.24,13.24,0,0,0-3-5.44,6.61,6.61,0,0,0-5-2.08h-.26a17.6,17.6,0,0,0-11,3.63,18.57,18.57,0,0,0-6.63,9.36v24a4.31,4.31,0,0,0,1.32,3.19,4.39,4.39,0,0,0,3.21,1.3v.15h-16v-.15a4.47,4.47,0,0,0,4.49-4.49V39.43a4.51,4.51,0,0,0-4.49-4.53v-.15h6.07a5.19,5.19,0,0,1,3.85,1.6,5.3,5.3,0,0,1,1.59,3.87v5.13a20.07,20.07,0,0,1,7.12-8.08,18.72,18.72,0,0,1,10.47-3.05H444a16.11,16.11,0,0,1,10.22,3.28,15,15,0,0,1,5.45,8.83,19.86,19.86,0,0,1,7.08-8.75,18.63,18.63,0,0,1,10.93-3.36h.22a17,17,0,0,1,8.27,2,14.64,14.64,0,0,1,5.7,5.53,15.92,15.92,0,0,1,2.07,8.19V72.23a4.28,4.28,0,0,0,1.33,3.19,4.33,4.33,0,0,0,3.17,1.3v.15h-16v-.15a4.45,4.45,0,0,0,4.49-4.15V49.92a24.72,24.72,0,0,0-1-7.13,12.88,12.88,0,0,0-3-5.44,6.64,6.64,0,0,0-5-2.08h-.22A17.7,17.7,0,0,0,466.5,39a18.49,18.49,0,0,0-6.57,9.66c0,.41,0,.82,0,1.25V72.23a4.47,4.47,0,0,0,4.49,4.49v.15h-16Z"/></g></g></svg>