<svg xmlns="http://www.w3.org/2000/svg" viewBox="0 0 397.96 128.84"><g id="Layer_2" data-name="Layer 2"><g id="Layer_1-2" data-name="Layer 1"><path d="M79.58,78.74H68.42c-6,0-10.88-3.53-11.32-8a33.24,33.24,0,0,1-21.47,8C16,78.74,0,61.11,0,39.37S16,0,35.63,0C50.8,0,63.72,10.48,68.86,25.24h-16C45.29,9.59,32.86.07,23,3.3,11.71,7,8.12,26.2,15,46.15s21.65,33.1,33,29.39c4.05-1.34,7.1-4.66,9-9.28V57.53c0-4.78-2-8.65-8.31-8.65H59.34v0l.07,0h.45c6.3,0,11.41,3.87,11.41,8.65V70.09C71.27,74.87,73.28,78.74,79.58,78.74ZM45.19,40.89c-4.85,0-10.69,7.69-10.69,17.18,0-9.49-5.84-17.18-10.69-17.18,4.85,0,10.69-7.72,10.69-17.21C34.5,33.17,40.34,40.89,45.19,40.89Z"/><path d="M134.89,60.09a27.07,27.07,0,0,1-15.46,16.57c-14.13,5.71-30.38-1.55-36.3-16.21S83.86,29.28,98,23.58s30.38,1.55,36.3,16.2c0,0,0,0,0,.06H93.15a52.58,52.58,0,0,0,3.74,15c5.77,14.28,15.87,23.67,22.56,21,5.09-2,6.72-10.51,4.68-20.73l3.54,1.63Zm-41.79-21h25.19c-5.87-10.8-14-17.28-19.73-15C94.47,25.78,92.61,31.59,93.1,39.11Z"/><path d="M189.22,21.5,160.46,128.82l-.76,0,13.42-50.09H160.71c0-18.77-21.38-38.91-21.38-57.27h14.25c.59,10.18,17.22,34.2,20.81,52.49l14-52.31Z"/><path d="M243,60.86c0,10-10.52,17.89-23.94,17.89-12.78,0-22.93-7.14-23.86-16.5a7.93,7.93,0,0,1,.07-2c0-.15.05-.29.08-.44a7.93,7.93,0,0,1,.6-1.84h0A8.14,8.14,0,0,1,197,56.39l.22-.25a7.35,7.35,0,0,1,1.57-1.3h0l12.41,6.76a8.92,8.92,0,0,0-4,7.45s0,0,0,.06,0,0,0,0a8.69,8.69,0,0,0,2.6,6.2A8.91,8.91,0,0,0,216.1,78h5.82a8.9,8.9,0,0,0,6.34-2.63,8.66,8.66,0,0,0,2.61-6.21s0,0,0,0,0,0,0-.06a8.92,8.92,0,0,0-4.2-7.55v0a39.73,39.73,0,0,0-10.19-4.65c-3.6-1.07-9.9-3.29-14.74-6.81-3.62-2.64-6.39-6-6.61-10.15,0-.18,0-.35,0-.54,0-10,10.52-17.89,23.93-17.89,12.79,0,22.94,7.14,23.87,16.5a8,8,0,0,1-.07,2c0,.14-.05.29-.08.43a7.77,7.77,0,0,1-.6,1.84h0A7.31,7.31,0,0,1,241,43.78l-.21.25a7.3,7.3,0,0,1-1.57,1.3h0l-12.41-6.77a8.91,8.91,0,0,0,4-7.44s0,0,0-.07v0a8.69,8.69,0,0,0-2.6-6.2,8.91,8.91,0,0,0-6.34-2.64H216.1a8.89,8.89,0,0,0-6.33,2.63A8.68,8.68,0,0,0,207.16,31s0,0,0,0,0,0,0,.05a8.92,8.92,0,0,0,4.2,7.55v0a39.46,39.46,0,0,0,10.18,4.65c3.61,1.07,9.91,3.3,14.75,6.81,3.62,2.64,6.39,6,6.61,10.15C242.91,60.49,243,60.67,243,60.86Z"/><path d="M276.78,78.74H265.61c-6.29,0-11.4-3.87-11.4-8.65V22.22h-7.12v-.73h7.12v-7.2A14.25,14.25,0,0,1,268.47,0V21.49h7.12v.73h-7.12V70.09C268.47,74.87,270.48,78.74,276.78,78.74Z"/><path d="M334.74,60.09a27.06,27.06,0,0,1-15.47,16.57c-14.12,5.71-30.38-1.55-36.3-16.21s.73-31.17,14.86-36.87,30.38,1.55,36.3,16.2a.14.14,0,0,0,0,.06H293a52.62,52.62,0,0,0,3.75,15c5.77,14.28,15.87,23.67,22.56,21,5.08-2,6.72-10.51,4.68-20.73l3.53,1.63ZM293,39.11h25.18c-5.86-10.8-14-17.28-19.72-15C294.31,25.78,292.45,31.59,293,39.11Z"/><path d="M367,78.74H355.83c-6.3,0-11.41-3.87-11.41-8.65V30.14c0-4.78-2-8.65-8.31-8.65h11.16c6.3,0,11.4,3.87,11.4,8.65v40C358.67,74.87,360.69,78.74,367,78.74Zm31-40.57H383.7c-.11-3.12-1-5.3-2.38-6.67l0,0a5.4,5.4,0,0,0-1.18-.84,5.24,5.24,0,0,0-.57-.32,6.67,6.67,0,0,0-1.17-.38c-.16,0-.31-.1-.47-.13-7.05-1.16-18.11,7.53-19.22,20.33V47.79C358.7,22.45,398,8.77,398,38.17Z"/></g></g></svg>