<svg xmlns="http://www.w3.org/2000/svg" viewBox="0 0 322.26 72.62"><g id="Layer_2" data-name="Layer 2"><g id="Layer_1-2" data-name="Layer 1"><path d="M25.84,32.61a30.57,30.57,0,0,1,8.44.58,24.53,24.53,0,0,1,8,3.07A18.07,18.07,0,0,1,48.14,42a15.93,15.93,0,0,1,2.29,8.7q0,10.11-6.46,15.47T24,71.58H0v-.1a6.25,6.25,0,0,0,4.06-2.09L4.48,69a6.92,6.92,0,0,0,1.67-4.59V7.4A6.64,6.64,0,0,0,4.22,3.23,7.45,7.45,0,0,0,0,1V.83H26.67a26.83,26.83,0,0,1,7.14,1,22.64,22.64,0,0,1,6.51,2.92,15.66,15.66,0,0,1,4.74,4.85,12.25,12.25,0,0,1,1.83,6.66,12.17,12.17,0,0,1-2,7.25,15,15,0,0,1-5,4.42,29.39,29.39,0,0,1-6.78,2.66Q29.38,31.57,25.84,32.61ZM14.07,37.82a9.13,9.13,0,0,1,3.69-3.38A53.73,53.73,0,0,1,23.08,32L29,29.64a27.08,27.08,0,0,0,5.47-2.91,14.25,14.25,0,0,0,4-4.28A12.31,12.31,0,0,0,40,15.94q0-6.45-4.32-10.1a16.44,16.44,0,0,0-11-3.65H14.07ZM24.38,70.33a20.26,20.26,0,0,0,8.39-1.62,17.72,17.72,0,0,0,6-4.27,17,17,0,0,0,3.54-6,21.34,21.34,0,0,0,1.15-6.93A17.82,17.82,0,0,0,41.57,43a17.14,17.14,0,0,0-4.84-5.78,18,18,0,0,0-6.51-3.13,16.73,16.73,0,0,0-6.78-.36,12.89,12.89,0,0,0-5.83,2.5,9.79,9.79,0,0,0-3.54,5.42V70.33Z"/><path d="M81.53,18.55a26.16,26.16,0,0,1,10.54,2.13A27.29,27.29,0,0,1,106.43,35a26.07,26.07,0,0,1,2.14,10.52,26.5,26.5,0,0,1-2.14,10.58A27.24,27.24,0,0,1,92.07,70.49a27.17,27.17,0,0,1-21.09,0A27.18,27.18,0,0,1,56.63,56.11a26.33,26.33,0,0,1-2.14-10.58A25.9,25.9,0,0,1,56.63,35,27.23,27.23,0,0,1,71,20.68,26.24,26.24,0,0,1,81.53,18.55Zm0,53a14.55,14.55,0,0,0,7.43-2A20.18,20.18,0,0,0,95,64a28.36,28.36,0,0,0,4.1-8.28,33.2,33.2,0,0,0,1.51-10.16,32.81,32.81,0,0,0-1.51-10.05A28.54,28.54,0,0,0,95,27.19,20.14,20.14,0,0,0,89,21.62a14.61,14.61,0,0,0-14.86,0A20,20,0,0,0,68,27.19a28.54,28.54,0,0,0-4.1,8.29,32.81,32.81,0,0,0-1.51,10.05,33.2,33.2,0,0,0,1.51,10.16A28.36,28.36,0,0,0,68,64a20.06,20.06,0,0,0,6.08,5.58A14.55,14.55,0,0,0,81.53,71.58Z"/><path d="M164.62,71.68H144.37v-.1a6.17,6.17,0,0,0,4-2.08l.41-.42a7.09,7.09,0,0,0,1.65-4.69V45.32q-.1-4.78-.31-9.43a35.7,35.7,0,0,0-1.25-8.23,13.61,13.61,0,0,0-3.18-5.78,8,8,0,0,0-6-2.19,10.25,10.25,0,0,0-6.88,2.4,19.7,19.7,0,0,0-4.63,5.83A27.24,27.24,0,0,0,125.6,35a30.26,30.26,0,0,0-.78,6.15V64.5a6.87,6.87,0,0,0,1.68,4.58l.42.42A6.29,6.29,0,0,0,131,71.58v.1H110.75v-.1a6.35,6.35,0,0,0,4.17-2.08l.32-.42a7,7,0,0,0,1.66-4.69V32.92a16.27,16.27,0,0,0-1-5.62,13,13,0,0,0-3.07-4.79l12-3.23,0,12.08a31.27,31.27,0,0,1,2-4.22A21.24,21.24,0,0,1,129.91,23a15.07,15.07,0,0,1,4.38-3.17,13.47,13.47,0,0,1,6-1.25q6,0,9.45,2a13.81,13.81,0,0,1,5.38,5.31,21.68,21.68,0,0,1,2.51,7.61,72.53,72.53,0,0,1,.73,9V64.5a7.4,7.4,0,0,0,1.77,4.58l.31.42a6.39,6.39,0,0,0,4.17,2.08Z"/><path d="M218.8,71.68H198.55v-.1a6.17,6.17,0,0,0,4-2.08l.41-.42a7.09,7.09,0,0,0,1.65-4.69V45.32q-.1-4.78-.31-9.43a35.7,35.7,0,0,0-1.25-8.23,13.61,13.61,0,0,0-3.18-5.78,8,8,0,0,0-6-2.19,10.25,10.25,0,0,0-6.88,2.4,19.7,19.7,0,0,0-4.63,5.83A27.24,27.24,0,0,0,179.78,35a30.26,30.26,0,0,0-.78,6.15V64.5a6.87,6.87,0,0,0,1.68,4.58l.41.42a6.34,6.34,0,0,0,4.09,2.08v.1H164.93v-.1a6.35,6.35,0,0,0,4.17-2.08l.31-.42a7.05,7.05,0,0,0,1.67-4.69V32.92a16.27,16.27,0,0,0-1-5.62A13,13,0,0,0,167,22.51l12-3.23,0,12.08a31.27,31.27,0,0,1,2-4.22A21.24,21.24,0,0,1,184.09,23a15.07,15.07,0,0,1,4.38-3.17,13.47,13.47,0,0,1,6-1.25q6,0,9.45,2a13.87,13.87,0,0,1,5.38,5.31,21.88,21.88,0,0,1,2.51,7.61,72.53,72.53,0,0,1,.73,9V64.5a7.4,7.4,0,0,0,1.77,4.58l.31.42a6.35,6.35,0,0,0,4.17,2.08Z"/><path d="M239.33,71.68H219.22v-.1a6.48,6.48,0,0,0,4.16-2.19l.32-.31a7,7,0,0,0,1.66-4.69V32.92a14.76,14.76,0,0,0-4.06-10.41l11.88-3.23V64.5a6.87,6.87,0,0,0,1.67,4.58l.41.42a6.27,6.27,0,0,0,4.07,2.08ZM228.49,12.29l-4.79-7A5.69,5.69,0,0,1,225,1.56a4.68,4.68,0,0,1,7,0,5.69,5.69,0,0,1,1.3,3.75Z"/><path d="M266.73,66.27a14.4,14.4,0,0,1-3,3.12,17.66,17.66,0,0,1-3.65,2.14,12,12,0,0,1-5,1,8,8,0,0,1-6.77-3,14,14,0,0,1-2.51-8h-.1V21.15h-5.63v-2a9.42,9.42,0,0,0,5.32-1.51A14.73,14.73,0,0,0,249.22,14a17.22,17.22,0,0,0,2.4-4.48,12,12,0,0,0,.83-3.9h1.15V19.17h11v2h-11V61q0,4.38,1.77,6a6.27,6.27,0,0,0,4.48,1.66,9.07,9.07,0,0,0,2.81-.41,9.78,9.78,0,0,0,2.09-.94,7.5,7.5,0,0,0,1.77-1.46Z"/><path d="M310.28,71.68V54.18l.1-8.86v.32a78.73,78.73,0,0,1-6.26,13A49.82,49.82,0,0,1,297.88,67a19.82,19.82,0,0,1-5.73,4.37,11.75,11.75,0,0,1-4.79,1.25A17.78,17.78,0,0,1,278,70.33a16.78,16.78,0,0,1-5.83-5.63A14.71,14.71,0,0,1,270,57.46a14.16,14.16,0,0,1,1.51-7.14,19.18,19.18,0,0,1,4.9-6.19,20.16,20.16,0,0,1,6.15-3.39,30.82,30.82,0,0,1,6.92-1.51l7.25-.73q3.64-.36,7.13-1A21.77,21.77,0,0,0,310.49,35,21.24,21.24,0,0,0,309,26.88a7.46,7.46,0,0,0-4.59-4.58,15.68,15.68,0,0,0-6.66-.68,36.3,36.3,0,0,0-7,1.41,49.9,49.9,0,0,0-6.62,2.5Q281,27,278.6,28.24L269.85,22a75.26,75.26,0,0,1,8.44-2.55,57.35,57.35,0,0,1,12.09-1.51,20.63,20.63,0,0,1,5.1.21,29.59,29.59,0,0,1,4.9,1.25,37.85,37.85,0,0,1,8.54,4.38,19.75,19.75,0,0,1,6.43,6.66,35.91,35.91,0,0,1,2,4.22A11.59,11.59,0,0,1,318.2,39v22.3a13.65,13.65,0,0,0,.15,2.29A3.63,3.63,0,0,0,319,65a6,6,0,0,0,1.25,1.19,22.94,22.94,0,0,0,2,1.31Zm.1-34.9a27.24,27.24,0,0,1-7.91,2.14c-2.51.24-4.92.45-7.25.62a45.2,45.2,0,0,0-6.87,1A18.1,18.1,0,0,0,281.52,44a9.38,9.38,0,0,0-2.81,3.59,15.87,15.87,0,0,0-1.36,4.8,22.18,22.18,0,0,0,0,5.15,14.09,14.09,0,0,0,1.36,4.69,9.29,9.29,0,0,0,2.71,3.34,6,6,0,0,0,4,1.14,19.31,19.31,0,0,0,9.37-2.81,29.57,29.57,0,0,0,6.67-5.63,32.2,32.2,0,0,0,4.27-6.09q1.57-3,2.19-4.22a20.28,20.28,0,0,0,2.5-8.86Z"/></g></g></svg>