<svg xmlns="http://www.w3.org/2000/svg" viewBox="0 0 334.02 105.53"><g id="Layer_2" data-name="Layer 2"><g id="Layer_1-2" data-name="Layer 1"><path d="M48.52,42.85a8.07,8.07,0,0,0-.62-3.71Q45.85,34.91,38,36a36.74,36.74,0,0,0-4.43.88q-1.14.36-1.14.87a.58.58,0,0,0,.47.57,9.69,9.69,0,0,0,2,.26q7.32.62,8.76,5.57,1.14,4-1.54,10a38.49,38.49,0,0,1-8.05,11.3,37.13,37.13,0,0,1-7.42,5.77l-4,2.48L20,73.9a9.72,9.72,0,0,1-7.58-3.1,18.52,18.52,0,0,1-5-9A27.35,27.35,0,0,1,7.16,51.2,47.2,47.2,0,0,1,13.3,35.06,78.3,78.3,0,0,1,25.73,19.13Q41.41,3.24,55.33,1.39a22.84,22.84,0,0,1,4.59.05,10.12,10.12,0,0,1,3.56.87q2.05,1.25,2.22,4.54a17.43,17.43,0,0,1-1.5,7.33,18.29,18.29,0,0,1-3.87,5.46,21.1,21.1,0,0,1-5.62,4.23,13.39,13.39,0,0,1-7.12,1.65,5.29,5.29,0,0,1-4.43-2.78A4.2,4.2,0,0,1,42.49,21c0-.48,0-1.48,0-3q.21-3.3-.21-3.51l-.31-.2c-.06,0-.15.12-.25.36a4.64,4.64,0,0,0-.26.77c-.07.28-.17.76-.31,1.45q-1.14,5.46,1.44,8.25t7.74,1.65a20.67,20.67,0,0,0,11.71-7A18.89,18.89,0,0,0,67,7.47,8.21,8.21,0,0,0,65.23,1.8Q64.09.66,60.54.2a25.48,25.48,0,0,0-7.38.15A42.12,42.12,0,0,0,41.1,4.17,67.42,67.42,0,0,0,29,11.39Q12.83,23.77,4.89,38.62-.46,48.84.05,57.29A21.75,21.75,0,0,0,4.84,70.08a14.46,14.46,0,0,0,10.47,5.57A25.78,25.78,0,0,0,25.11,74q6.6-2.37,13.56-10.37T47.9,47.49A15.84,15.84,0,0,0,48.52,42.85Z"/><path d="M146.61,24.59l2.58.11a3.51,3.51,0,0,0,2.37-1,3.84,3.84,0,0,0,.83-3.09,3.38,3.38,0,0,0-1.91-2.37,2.93,2.93,0,0,0-3.15.2,3,3,0,0,0-1.44,3.72Z"/><path d="M331.23,48.42Q321.43,62.55,309,68.74A36.08,36.08,0,0,1,303.69,71q-3.19,1.13-3.3.93a22.27,22.27,0,0,1,2.06-3.51q2.07-3.2,8.57-13.82,6.8-11,8.56-13.82c1.37-2.07,2-3.3,2-3.72s-.93-.55-2.58-.41-2.93.21-3.41.21a1.84,1.84,0,0,0-1.49,1c-.45.65-1.74,2.77-3.87,6.34s-3.45,5.9-4.38,7.17-2.7,3.39-5.31,6.34q-7.74,8.88-12,11.76a15.76,15.76,0,0,1-5.36,2.42c-1.72.38-2.86.19-3.41-.56s-.63-2.1-.05-3.61,5.31-8.87,14.18-22.08q5.48-8.15,5.26-8.56a1,1,0,0,0-.87-.46q-.67,0-4.08.15a3.09,3.09,0,0,0-2.37.83c-.21.34-1.68,2.41-4.43,6.19l-1.22,1.65a7.23,7.23,0,0,0-2,1.44,13.69,13.69,0,0,1-6.81,3.92q-3.92.93-5.67-.93a4.23,4.23,0,0,1-.72-2.78c0-2.07,1.1-4.54,3.3-7.43,1.17-1.44,1.7-2.32,1.6-2.63s-1-.46-2.74-.46h-2.88l-1.45,1.54A29.83,29.83,0,0,1,264,42.23q-3,2.37-7.22,6.19A28.75,28.75,0,0,1,253.67,51c-.21.07-.24,0-.1-.11q4.74-7.32,7.11-11.24l.93-1.55c-.69-.55-2-.75-3.82-.61l-2.88.2-2.69,4.23c-.85,1.36-2.19,3.48-4,6.34q-1.48,1.62-3.92,4.39a120.73,120.73,0,0,1-15,14.9q-7.07,5.73-8.93,4.59-1-.72,0-4.12,2.68-9.07,16-26.1,2.68-3.41,2.58-4c0-.21-.22-.35-.67-.41s-1.46-.14-3-.21l-3.51-.1L230,39.65c-.49.62-.83,1.07-1,1.34-.49.69-.8.79-.93.31a6.09,6.09,0,0,0-3.72-4.38,12.13,12.13,0,0,0-7.32-.16,28.33,28.33,0,0,0-10.52,5.37l-6.19,4.74c-2.41,3.87-4.31,7.25-5.73,10.14a129.26,129.26,0,0,1-10.36,10.7q-5.16,4.64-7.53,5.15a4.58,4.58,0,0,1-2.78-.56,4.36,4.36,0,0,1-2.06-1.81,3.11,3.11,0,0,1-.42-1.24,6.76,6.76,0,0,1,.42-1.65q.91-2.77,6.29-9.59a89.47,89.47,0,0,0,6.5-8.92,13.06,13.06,0,0,0,1.85-5.42,6,6,0,0,0-.82-4,7.74,7.74,0,0,0-3.51-2.52,8,8,0,0,0-2.17-.52,18.85,18.85,0,0,0-2.68.41,10.64,10.64,0,0,0-4.48,2q-2.13,1.55-7.9,6.91l-4.33,4.13-.1-.1q-.21-.11,7-10.22c.9-1.23,1.27-2,1.14-2.16s-1.31-.41-3.51-.41h-3.3l-3.4,4.74q-3.1,4.39-6.19,9l-.31.28c-1,1-2.41,2.34-4.13,4.13A172.8,172.8,0,0,1,133.92,68l-4.43,3.5-3.41.83q-1.65.41-2.16,0c-.55-.48-.48-1.72.2-3.71a46.79,46.79,0,0,1,3.41-7.23q2.88-4.74,7.42-11.29a111,111,0,0,1,7.84-10.26,11.38,11.38,0,0,0,1.86-2.58c0-.21-1.13-.31-3.4-.31h-3.61l-2.58,3.09A117.61,117.61,0,0,0,123.22,57a78,78,0,0,1-6.63,7.55,32.46,32.46,0,0,1-10.21,7.12,16.18,16.18,0,0,1-3.71,1.23,2.36,2.36,0,0,1-2.17-.62,2.46,2.46,0,0,1-.77-1.9,20.21,20.21,0,0,1,.88-3.87q4.74-14.13,37.75-56.94l5.26-7V2.11c.07-.42-.74-.78-2.43-1.09A16.88,16.88,0,0,0,136.5.77a1.48,1.48,0,0,0-1.08.46A11.08,11.08,0,0,0,134,3.45Q131.45,7.89,120.2,24q-12.6,18-18.53,27.87c-.81,1-1.72,2.16-2.71,3.39Q95,60.08,92.77,62.34a68.45,68.45,0,0,1-6,5.47,32.34,32.34,0,0,1-5.26,3.71,6,6,0,0,1-4.23.62,2.31,2.31,0,0,1-1.76-2.47q0-2.79,3.56-9.08a131.89,131.89,0,0,1,10-14.65q4.13-5.46,5.15-6.91c.69-1,1-1.54.93-1.75s-1.44-.41-3.71-.41a26.47,26.47,0,0,0-3,.1,1.7,1.7,0,0,0-1.09.62q-1.76,2-6.34,8.61T74.31,56.36A34.74,34.74,0,0,1,68.84,63q-6.2,6.2-10.73,8.25A6.88,6.88,0,0,1,55,72a3,3,0,0,1-2-1.24q-3.51-4.53,15.36-27.13c3.24-3.85,4.71-5.94,4.44-6.29a16.6,16.6,0,0,0-3.92-.2l-3.71.1L60.9,42.75Q46.05,62.24,46.66,69.05q.31,4.74,6,4.64a22.78,22.78,0,0,0,3.25-.31A16,16,0,0,0,59.14,72a40.86,40.86,0,0,0,9.29-6.71L71.11,63l-.62,1.34a17.52,17.52,0,0,0-.62,4.08,6.69,6.69,0,0,0,.41,3.25,4.28,4.28,0,0,0,1.86,2,10.17,10.17,0,0,0,3.71.46A20.72,20.72,0,0,0,79,74a12.19,12.19,0,0,0,2.78-1.19q7-3.41,16.17-14.18a65.15,65.15,0,0,0-2.71,6.19,13.66,13.66,0,0,0-.77,4.48,7.43,7.43,0,0,0,.51,3.3A4.4,4.4,0,0,0,97.1,74.2a9.62,9.62,0,0,0,4.23.21q6.7-.93,13.36-6.45a54.19,54.19,0,0,0,5.92-5.81q-4,9.48.52,11.85,3.11,1.55,9.29-1.86a49.84,49.84,0,0,0,8.66-6.24c2.38-2.08,5.3-4.89,8.75-8.4C146.89,59,146,60.4,145,61.88q-6.66,10.47-6.45,11.4c.07.34,1.17.55,3.3.62l3.3.1,2.27-3.92q1.75-3,6-9.59a60.9,60.9,0,0,1,3.4-5.11,22,22,0,0,1,3-2.94q4.33-3.81,8.15-7.32,5.06-4.74,7.43-5.88a5.34,5.34,0,0,1,3.4-.72,4.26,4.26,0,0,1,2.37,1.75,3.26,3.26,0,0,1,.62,2.68,14.53,14.53,0,0,1-2.06,4.13A73.76,73.76,0,0,1,173.94,54q-5.56,6.09-7.12,9.08-3.6,6.9,3.82,10.52a6.94,6.94,0,0,0,2.12.92,12.26,12.26,0,0,0,2.32,0,10.85,10.85,0,0,0,5.36-1.85,66.24,66.24,0,0,0,7.84-6.91c1.44-1.44,2.92-3,4.44-4.69a16.65,16.65,0,0,0-1.25,5.2A8.66,8.66,0,0,0,193.23,72a7.54,7.54,0,0,0,4.33,2.06,11.61,11.61,0,0,0,5.57-.31q3.19-.93,9.08-6.7l2.88-2.89-.61,2.58q-2.28,8.66,4.53,7.84,4-.53,10.83-5.47a75.64,75.64,0,0,0,8.82-7.94c1.35-1.36,2.58-2.64,3.72-3.87-.42.66-.85,1.32-1.3,2Q232.43,72.66,232.63,73c.14.27.74.46,1.8.56a11.42,11.42,0,0,0,2.94,0l1.65-.2,11-17,4.85-4.33q9.59-8.88,11.55-10c.2,0,.1.55-.31,1.65q-1.44,4.34.51,7A7.06,7.06,0,0,0,271.82,53a16.92,16.92,0,0,0,8.67-1.86,18.48,18.48,0,0,0,3-2q-9.88,14-10.24,18.35c-.35,3.09.79,5.23,3.4,6.4a9.33,9.33,0,0,0,3.2.41,8.92,8.92,0,0,0,3.4-.52q5.88-2,13.82-10l2-2c.69-.62.83-.59.41.1q-5.35,8.57-11.7,17a135.22,135.22,0,0,1-11,13.2A43,43,0,0,1,266,100.56a23.18,23.18,0,0,1-10.57,2.53,12.6,12.6,0,0,1-5.72-1,9.31,9.31,0,0,1-3.36-3.77,12.93,12.93,0,0,1-1.23-4.74,12.1,12.1,0,0,1,1.54-7.12,6.9,6.9,0,0,1,5-3.3q1.23-.21,1.23-.72c0-.69-1.17-.86-3.5-.52q-6.71,1-9.18,5.67a9.58,9.58,0,0,0-.62,3.92,9.32,9.32,0,0,0,.93,4.64,12.36,12.36,0,0,0,2.83,3.92,21,21,0,0,0,4.9,3.1,27.37,27.37,0,0,0,5.42,2.06,22.68,22.68,0,0,0,5.62.21l9.18-.42,7.32-5.05q9.39-6.6,21-23.31,2.37-3.2,3.1-3.3a33.13,33.13,0,0,0,9.49-3.4,57.37,57.37,0,0,0,17.84-14.14,69.92,69.92,0,0,0,4.64-6c1.45-2.1,2.17-3.35,2.17-3.76Q334,44.4,331.23,48.42ZM218.4,57.19a36.86,36.86,0,0,1-5.68,7.27,33,33,0,0,1-7,5.83,5.6,5.6,0,0,1-3.61.61,4.24,4.24,0,0,1-2.89-1.75,5,5,0,0,1-.62-3.2,15.37,15.37,0,0,1,.93-4.54,46.44,46.44,0,0,1,6.81-12.06,53.14,53.14,0,0,1,5.77-6.55,27,27,0,0,1,5.26-4.39l3.2-1.54,2.17.82q1.65.62,1.54,5.06A17.52,17.52,0,0,1,221.49,52Q219.95,54.51,218.4,57.19Z"/></g></g></svg>