<svg xmlns="http://www.w3.org/2000/svg" viewBox="0 0 438.25 96.71"><g id="Layer_2" data-name="Layer 2"><g id="Layer_1-2" data-name="Layer 1"><path d="M4.12,46c2.27-.64,1.54-2.55,1.77-3.95C9.45,20.58,27.43,5.26,48.69,5.61A42.43,42.43,0,0,1,90.11,42.45c.36,2.66,1.1,3.91,4,3.59,3.33-.37,2-2.68,1.84-4.24C93.05,17.92,72.46,0,48,0a48,48,0,0,0-48,42.26C-.34,45.67,1,46.84,4.12,46Z"/><path d="M92.15,53.41c-14.61-.09-29.22-.06-43.84-.06s-29.52,0-44.27.06c-1.38,0-3.79-1.21-3.76,2,0,2.71,1.14,3.71,4,3.7q43.85-.13,87.68,0c3,0,3.75-1.24,3.9-3.71C96,52.13,93.5,53.42,92.15,53.41Z"/><path d="M80.6,46c3.31-.5,1.7-2.94,1.47-4.38A34.15,34.15,0,0,0,48.2,13.11,34.25,34.25,0,0,0,13.88,42.16c-.58,3.48,1,4.84,4.29,3.78,2-.65,1.34-2.35,1.6-3.62C22.61,28.22,33.81,19,48.09,19s25.53,9.21,28.09,23.42C76.7,45.31,77.77,46.43,80.6,46Z"/><path d="M10,71.94q37.83-.28,75.65,0c4.07,0,5.79-1.51,6.32-5.39H4.06C4.72,70.08,6,72,10,71.94Z"/><path d="M20.29,84.75c18.37-.21,36.74-.24,55.11,0,4.31.06,6.51-2,9-5.34H11.76C14.07,82.8,16.19,84.8,20.29,84.75Z"/><path d="M62.29,43.5c.77,3.11,2.71,2.59,4.56,2.46,2.69-.18,1.62-2.27,1.37-3.64-1.71-9.12-10.39-16-20.06-16A20.26,20.26,0,0,0,28,42.12c-.33,1.37-1.62,3.42,1,3.78,1.89.26,4.06,1,4.84-2.52,1.63-7.2,7-11.11,14.11-11.17C55.2,32.15,60.43,36,62.29,43.5Z"/><path d="M66.68,92.34H29.29C41.81,98.09,54.27,98.23,66.68,92.34Z"/><path d="M44.39,41.32c-1.33,1-2.86,2.2-2.47,3.77.45,1.79,2.48.7,3.8.92a13,13,0,0,0,2.16,0,5.56,5.56,0,0,0,1.29,0c1.7-.41,4.61,1.15,4.9-1,.35-2.58-2.23-4.14-4.76-4.78A5.85,5.85,0,0,0,44.39,41.32Z"/><path d="M199.35,12.69,166,88h-7.85L124.8,12.69h8.61L162.23,78.1l29.05-65.41Z"/><path d="M208.17,17.43a5.28,5.28,0,0,1-1.62-3.87,5.16,5.16,0,0,1,1.62-3.77,5.38,5.38,0,0,1,4-1.61,5.52,5.52,0,0,1,4,1.56,5,5,0,0,1,1.61,3.71,5.63,5.63,0,0,1-9.57,4Zm.1,14h7.64V88h-7.64Z"/><path d="M239.2,86.54a28.25,28.25,0,0,1-9.84-5l3.44-6a29.23,29.23,0,0,0,8.93,4.57,35.5,35.5,0,0,0,11.18,1.77q7.75,0,11.46-2.42a7.7,7.7,0,0,0,3.71-6.83,6.13,6.13,0,0,0-2-4.89A13.6,13.6,0,0,0,260.88,65a75.65,75.65,0,0,0-8.29-1.78,96.48,96.48,0,0,1-11.08-2.63,16.34,16.34,0,0,1-7.15-4.57c-2-2.16-3-5.13-3-8.93a14,14,0,0,1,5.92-11.62Q243.23,31,253.78,31a43.12,43.12,0,0,1,11,1.45,30.41,30.41,0,0,1,9,3.82l-3.33,6.13a28.61,28.61,0,0,0-16.67-4.84q-7.32,0-11,2.58A7.93,7.93,0,0,0,239,46.9a6.68,6.68,0,0,0,2.1,5.16,12.73,12.73,0,0,0,5.21,2.86A85.42,85.42,0,0,0,255,56.8a98.52,98.52,0,0,1,10.86,2.58,15.88,15.88,0,0,1,7,4.41q2.91,3.12,2.91,8.61a13.66,13.66,0,0,1-6.19,11.77q-6.18,4.36-17.15,4.36A43.38,43.38,0,0,1,239.2,86.54Z"/><path d="M289.7,17.43a5.31,5.31,0,0,1-1.61-3.87,5.19,5.19,0,0,1,1.61-3.77,5.39,5.39,0,0,1,4-1.61,5.49,5.49,0,0,1,4,1.56,5,5,0,0,1,1.62,3.71,5.64,5.64,0,0,1-9.58,4Zm.11,14h7.64V88h-7.64Z"/><path d="M327.14,84.82a27,27,0,0,1-10.33-10.27,29.3,29.3,0,0,1-3.76-14.85,29.26,29.26,0,0,1,3.76-14.84,26.63,26.63,0,0,1,10.33-10.22,31.49,31.49,0,0,1,29.47,0,26.28,26.28,0,0,1,10.27,10.22,29.54,29.54,0,0,1,3.71,14.84,29.57,29.57,0,0,1-3.71,14.85,26.67,26.67,0,0,1-10.27,10.27,31.12,31.12,0,0,1-29.47,0ZM352.68,79a19.14,19.14,0,0,0,7.48-7.8,24.14,24.14,0,0,0,2.69-11.51,24.17,24.17,0,0,0-2.69-11.51,19.14,19.14,0,0,0-7.48-7.8,22.69,22.69,0,0,0-21.62,0,19.51,19.51,0,0,0-7.53,7.8,23.74,23.74,0,0,0-2.74,11.51,23.71,23.71,0,0,0,2.74,11.51,19.51,19.51,0,0,0,7.53,7.8,22.69,22.69,0,0,0,21.62,0Z"/><path d="M432,37.17q6.3,6.18,6.29,18V88h-7.63v-32q0-8.82-4.41-13.45t-12.59-4.62q-9.14,0-14.47,5.43t-5.32,15V88h-7.64V31.41h7.32V41.85a21.17,21.17,0,0,1,8.66-8A27.68,27.68,0,0,1,415,31Q425.67,31,432,37.17Z"/></g></g></svg>