<svg xmlns="http://www.w3.org/2000/svg" viewBox="0 0 591.63 113.64"><g id="Layer_2" data-name="Layer 2"><g id="Layer_1-2" data-name="Layer 1"><path d="M86.89,20.84c1.3-1.3,2.23-2.75.58-4.33s-3-.66-4.35.67q-12,12.06-24,24.12a34.79,34.79,0,0,0-2.63,3.36l-.92-.59a84.39,84.39,0,0,0-.06-9c-.4-3.69.91-6.24,3.62-8.71,4.9-4.47,9.44-9.32,14.12-14,1.26-1.26,1.51-2.7.16-4s-2.62-.87-3.81.3L68.2,10c-4.46,4.47-9,8.89-13.36,13.44-1.36,1.41-2.21,1.83-3.71.09-2.08-2.41-4.47-4.56-6.74-6.82C41.68,14,39,11.26,36.23,8.57c-1.18-1.17-2.54-1.44-3.8-.17s-1,2.59.11,3.83c.33.35.68.68,1,1L48.82,28.51c.61.61,1.49,1.12,1.49,2.09,0,4.52,0,9,0,14-.94-.85-1.48-1.29-2-1.79Q37.75,32.24,27.17,21.63c-1.75-1.75-3.47-3.55-5.3-5.21a2.4,2.4,0,0,0-3.64.21,2.41,2.41,0,0,0,.07,3.47c.37.42.78.8,1.17,1.2L50,51.84c.33.94-.11,1.94.25,2.87.14,1.43.07,2.87.07,4.31.05,17.42-.09,34.83.08,52.25l.07.45a2.5,2.5,0,0,0,3.18,1.81c1.46-.38,1.93-1.54,1.9-3,0-.8,0-1.6,0-2.4,0-17.83,0-35.66-.05-53.49a5.58,5.58,0,0,1,1.87-4.37C67.23,40.53,77.05,30.67,86.89,20.84Z"/><path d="M26.81,43.43c-1.84-1.82-3.35-2.09-4.51-.71-1.41,1.69-.56,3.05.76,4.36C26.54,50.5,30,54,33.41,57.42a3.21,3.21,0,0,1,1.29,2.43c-.07,4.3,0,8.6,0,13.41-.66-.54-.92-.71-1.13-.93Q22.35,61.14,11.17,49.93C9,47.73,6.78,45.5,4.53,43.35a2.43,2.43,0,0,0-3.81,0C-.38,44.59-.14,45.88.91,47c.59.65,1.22,1.27,1.84,1.89Q18,64.2,33.3,79.44a4.18,4.18,0,0,1,1.4,3.33c-.1,3.84,0,7.68,0,11.51,0,1.83.24,3.45,2.49,3.64,1.8.14,2.74-1.13,2.74-3.65,0-11.83,0-23.66,0-35.5a4.94,4.94,0,0,0-1.56-3.83C34.49,51.13,30.67,47.26,26.81,43.43Z"/><path d="M105,43.26c-2-1.68-3.33-.29-4.68,1.07-3.32,3.34-6.67,6.66-10,10L71.21,73.5c0-5.15,0-9.53,0-13.91,0-1.05.68-1.56,1.28-2.16,3.45-3.45,6.89-6.91,10.35-10.34,1.32-1.3,2.24-2.72.73-4.33s-3-.84-4.33.49q-5.93,5.94-11.88,11.86A4.5,4.5,0,0,0,66,58.53q0,18,0,36c0,1.88.51,3.43,2.74,3.4s2.51-1.57,2.5-3.34c0-3.92.06-7.84,0-11.75a4.19,4.19,0,0,1,1.39-3.34Q88.31,63.84,104,48.11C106.07,46,106.43,44.48,105,43.26Z"/><path d="M17.79,40.06a2.27,2.27,0,0,0,2-2,7.54,7.54,0,0,0-7.46-8.72c-1,.34-2.57-.21-3.09,1.66C7.82,36,12.7,41.18,17.79,40.06Z"/><path d="M86.09,37.9a2.32,2.32,0,0,0,2.08,2.18,7.42,7.42,0,0,0,8.66-7.3c0-2.66-.67-3.39-3.31-3.43A7.42,7.42,0,0,0,86.09,37.9Z"/><path d="M53,13.45c2-.07,4.53-3.77,4.56-6.65S54.88-.09,52.87,0s-4.52,3.82-4.55,6.69S51,13.53,53,13.45Z"/><path d="M197.28,27V86.18h-6V38.87L168.05,78.66h-3L141.86,39.12V86.18h-6V27H141L166.7,70.89,192.12,27Z"/><path d="M221.86,83.68a21.28,21.28,0,0,1-8.11-8.06,23,23,0,0,1-3-11.66,23,23,0,0,1,3-11.66,21.07,21.07,0,0,1,8.11-8,24.78,24.78,0,0,1,23.15,0,20.83,20.83,0,0,1,8.07,8A23.3,23.3,0,0,1,256,64a23.3,23.3,0,0,1-2.91,11.66A21,21,0,0,1,245,83.68a24.4,24.4,0,0,1-23.15,0Zm20.07-4.56A15,15,0,0,0,247.8,73a19.05,19.05,0,0,0,2.11-9,19.05,19.05,0,0,0-2.11-9,15.09,15.09,0,0,0-5.87-6.13,17.86,17.86,0,0,0-17,0A15.38,15.38,0,0,0,219,54.92a18.72,18.72,0,0,0-2.15,9A18.72,18.72,0,0,0,219,73a15.29,15.29,0,0,0,5.91,6.12,17.78,17.78,0,0,0,17,0Z"/><path d="M304.19,46.26q4.94,4.86,4.94,14.15V86.18h-6V61q0-6.93-3.46-10.56t-9.89-3.63q-7.17,0-11.36,4.27t-4.18,11.78V86.18h-6V41.74H274v8.19a16.66,16.66,0,0,1,6.8-6.29,21.77,21.77,0,0,1,10.09-2.24Q299.25,41.4,304.19,46.26Z"/><path d="M348.84,83.47a11.43,11.43,0,0,1-4.19,2.33,17,17,0,0,1-5.19.8q-6.25,0-9.63-3.38t-3.38-9.55V46.81h-7.94V41.74h7.94V32h6v9.72H346v5.07H332.45V73.34a8.42,8.42,0,0,0,2,6,7.52,7.52,0,0,0,5.7,2.07,10.86,10.86,0,0,0,3.59-.6,8.78,8.78,0,0,0,3-1.68Z"/><path d="M361.3,85a22.2,22.2,0,0,1-7.74-3.93l2.71-4.73a22.83,22.83,0,0,0,7,3.59,27.83,27.83,0,0,0,8.79,1.39q6.07,0,9-1.9A6,6,0,0,0,384,74.1a4.83,4.83,0,0,0-1.61-3.85,10.67,10.67,0,0,0-4.05-2.11,57.68,57.68,0,0,0-6.51-1.39,76.67,76.67,0,0,1-8.7-2.07,12.83,12.83,0,0,1-5.62-3.59,10,10,0,0,1-2.32-7A11,11,0,0,1,359.82,45q4.64-3.54,12.92-3.55a33.59,33.59,0,0,1,8.62,1.14,23.74,23.74,0,0,1,7.1,3l-2.62,4.82a22.41,22.41,0,0,0-13.1-3.81c-3.83,0-6.71.68-8.66,2a6.22,6.22,0,0,0-2.91,5.33A5.25,5.25,0,0,0,362.82,58a10.13,10.13,0,0,0,4.09,2.24,67.16,67.16,0,0,0,6.76,1.48,75.25,75.25,0,0,1,8.53,2,12.53,12.53,0,0,1,5.5,3.46A9.52,9.52,0,0,1,390,73.93a10.75,10.75,0,0,1-4.86,9.25q-4.86,3.42-13.48,3.42A34.12,34.12,0,0,1,361.3,85Z"/><path d="M439.74,65.82H402.56A15.88,15.88,0,0,0,407.89,77a17.63,17.63,0,0,0,12.16,4.27,19.3,19.3,0,0,0,7.61-1.48,16.77,16.77,0,0,0,6-4.35L437,79.33a19,19,0,0,1-7.39,5.41,25,25,0,0,1-9.76,1.86,24.59,24.59,0,0,1-12.12-2.92,21,21,0,0,1-8.24-8.06A23,23,0,0,1,396.57,64,23.79,23.79,0,0,1,399.4,52.3a20.49,20.49,0,0,1,7.77-8,22.86,22.86,0,0,1,22.18,0,20.43,20.43,0,0,1,7.68,8A24,24,0,0,1,439.82,64ZM407.51,50.65a16.09,16.09,0,0,0-4.95,10.69h31.52a16.14,16.14,0,0,0-4.95-10.69,16.3,16.3,0,0,0-21.62,0Z"/><path d="M464.11,43.68a21.41,21.41,0,0,1,10.35-2.28v5.83L473,47.15c-4.67,0-8.34,1.43-11,4.31s-4,6.89-4,12.08V86.18h-6V41.74h5.74v8.7A14.57,14.57,0,0,1,464.11,43.68Z"/><path d="M497.31,43.68a21.41,21.41,0,0,1,10.35-2.28v5.83l-1.44-.08q-7,0-11,4.31t-4,12.08V86.18h-6V41.74H491v8.7A14.57,14.57,0,0,1,497.31,43.68Z"/><path d="M547.28,45.75q4.65,4.35,4.65,12.89V86.18h-5.75V79.25a13.78,13.78,0,0,1-6,5.41,20.88,20.88,0,0,1-9.33,1.94q-7.44,0-11.83-3.55a11.44,11.44,0,0,1-4.39-9.38,11.34,11.34,0,0,1,4.1-9.12q4.1-3.46,13.05-3.46h14.11V58.38q0-5.75-3.21-8.74t-9.38-3A23.8,23.8,0,0,0,525.23,48a20.24,20.24,0,0,0-6.67,3.85l-2.71-4.48A24,24,0,0,1,524,43a31.39,31.39,0,0,1,10-1.57Q542.63,41.4,547.28,45.75Zm-6.76,33.8a13.94,13.94,0,0,0,5.41-6.72V65.56H532q-11.41,0-11.41,8a7.26,7.26,0,0,0,3,6.12q3,2.24,8.28,2.24A15.87,15.87,0,0,0,540.52,79.55Z"/><path d="M591.63,83.47a11.38,11.38,0,0,1-4.18,2.33,17,17,0,0,1-5.2.8q-6.25,0-9.63-3.38t-3.38-9.55V46.81H561.3V41.74h7.94V32h6v9.72h13.52v5.07H575.24V73.34a8.38,8.38,0,0,0,2,6,7.52,7.52,0,0,0,5.7,2.07,10.91,10.91,0,0,0,3.59-.6,9,9,0,0,0,3-1.68Z"/></g></g></svg>