<svg xmlns="http://www.w3.org/2000/svg" viewBox="0 0 309.24 92.64"><g id="Layer_2" data-name="Layer 2"><g id="Layer_1-2" data-name="Layer 1"><path d="M78.51,78.31a22.16,22.16,0,0,1-7.72,6.09,22.42,22.42,0,0,1-9.68,2.1,24.64,24.64,0,0,1-12-3.12q-5.67-3.13-12.74-10.49a38.84,38.84,0,0,1-18.63-5.12,35,35,0,0,1-13-13A36.1,36.1,0,0,1,0,36.44,36.16,36.16,0,0,1,4.86,17.81a34.71,34.71,0,0,1,13.52-13A39.34,39.34,0,0,1,37.67,0,39.08,39.08,0,0,1,56.86,4.71,34.81,34.81,0,0,1,70.32,17.76a36.08,36.08,0,0,1,4.92,18.68A36.7,36.7,0,0,1,71.5,53,34.72,34.72,0,0,1,61.06,65.51a36.58,36.58,0,0,1-15.41,6.66q7.89,8.3,15.57,8.29,8,0,13.61-6.55ZM11.41,51.59A28.53,28.53,0,0,0,22.26,62.24a30.9,30.9,0,0,0,15.41,3.89A30.66,30.66,0,0,0,53,62.24,28.17,28.17,0,0,0,63.77,51.59a29.72,29.72,0,0,0,3.89-15.15,29.75,29.75,0,0,0-3.89-15.15A28.31,28.31,0,0,0,53,10.64,30.65,30.65,0,0,0,37.67,6.76a30.89,30.89,0,0,0-15.41,3.88A28.67,28.67,0,0,0,11.41,21.29,29.59,29.59,0,0,0,7.47,36.44,29.56,29.56,0,0,0,11.41,51.59Z"/><path d="M139.22,18.42V72.27h-7V62.44a19.87,19.87,0,0,1-7.88,7.63,23.67,23.67,0,0,1-11.46,2.71q-10.55,0-16.64-5.88T90.18,49.65V18.42h7.27V48.93c0,5.67,1.4,10,4.2,12.9s6.79,4.4,12,4.4q8.5,0,13.42-5.17T132,46.68V18.42Z"/><path d="M206.47,47.6h-45a19.22,19.22,0,0,0,6.45,13.56q5.84,5.18,14.74,5.17a23.13,23.13,0,0,0,9.21-1.79,20.09,20.09,0,0,0,7.27-5.27L203.2,64a23.14,23.14,0,0,1-9,6.55,30.32,30.32,0,0,1-11.82,2.25,29.92,29.92,0,0,1-14.69-3.53,25.31,25.31,0,0,1-10-9.78,27.84,27.84,0,0,1-3.59-14.12,28.92,28.92,0,0,1,3.43-14.13A24.88,24.88,0,0,1,167,21.5a27.67,27.67,0,0,1,26.87,0,24.71,24.71,0,0,1,9.32,9.67,29.17,29.17,0,0,1,3.37,14.18ZM167.42,29.22a19.52,19.52,0,0,0-6,13h38.18a19.47,19.47,0,0,0-6-13,19.78,19.78,0,0,0-26.2,0Z"/><path d="M236,20.78A26,26,0,0,1,248.54,18v7.06L246.8,25q-8.49,0-13.31,5.22t-4.81,14.64V72.27h-7.27V18.42h7V29A17.6,17.6,0,0,1,236,20.78Z"/><path d="M309.24,18.42l-26.92,60.3q-3.27,7.57-7.57,10.75a17,17,0,0,1-10.34,3.17,21.06,21.06,0,0,1-7.27-1.23,15.78,15.78,0,0,1-5.84-3.68l3.38-5.43a13.42,13.42,0,0,0,9.83,4.1,9.93,9.93,0,0,0,6.3-2.05,18.57,18.57,0,0,0,4.86-7L278,72.17,254,18.42h7.57l20.27,45.76,20.27-45.76Z"/></g></g></svg>