<svg xmlns="http://www.w3.org/2000/svg" viewBox="0 0 497.68 104.4"><g id="Layer_2" data-name="Layer 2"><g id="Layer_1-2" data-name="Layer 1"><path d="M51.68,0C23,.1-.09,23.61,0,52.63A52.18,52.18,0,1,0,51.68,0ZM57,99.66a47.37,47.37,0,0,1-28.66-6.18,14.08,14.08,0,0,1-5.35-5.15,7.06,7.06,0,0,1-.12-7.61A6.81,6.81,0,0,1,29.4,77.4c3.29.14,6.16,1.53,8.91,3.21,5.67,3.46,11.23,7.12,17.23,10A46.7,46.7,0,0,0,72,95.28,37.07,37.07,0,0,1,57,99.66Zm12-9.43c-6.38-.88-12-3.72-17.49-6.91-3.81-2.22-7.54-4.56-11.31-6.85a27.6,27.6,0,0,0-5.85-2.74C25.52,70.9,18.8,74.89,17.08,84.15c-8.54-8.89-6.8-22.89,3.29-27.83,5-2.44,10.06-2.1,15.09-.07,6.22,2.51,11,7,15.95,11.38,5.69,5.05,11.45,10,18.41,13.33a23.42,23.42,0,0,0,18.11,1.32,6.54,6.54,0,0,1,1.28-.16C84,89.21,77.08,91.35,69,90.23ZM62.19,32.44C49.34,25.64,33,33.6,30.43,47.91c-.3,1.69-.68,2.37-2.51,2.23a14.45,14.45,0,0,0-6.38.9c-2.14.85-2.11-.17-1.94-1.71,1.22-11.17,6.6-19.77,16.28-25.42C56.17,12.05,82,25.2,84.72,48.59c.19,1.68-.26,2.42-1.87,3-2.81,1-5.49,2.41-8.49,3.75C74.84,45,71.19,37.21,62.19,32.44Zm2.39,28c-1.5.36-2.9,1.16-4.39,1.55-3.95,1-7.56,1.33-10.92-2.15A34,34,0,0,0,35.9,51.62c-1.36-.48-1.39-1.16-1.19-2.32,1.54-8.91,9.8-15.5,18.55-14.76,9.54.81,16.6,8.34,16.6,18.62C70.06,56.24,69,59.4,64.58,60.48ZM98,64.64c-1.7,10.44-12.53,16.81-23,13.47-6.48-2-11.62-6.27-17.18-10.9C66.31,65.73,72.9,61.09,80,57.69a29.47,29.47,0,0,1,8.25-2.95C94.67,53.77,99.07,58.24,98,64.64ZM90.09,50c-1.22,0-.87-1.31-1-2.08A37.21,37.21,0,0,0,15,51.9a4.91,4.91,0,0,1-1.7,4c-3.1,2.82-4.67,6-6,11.53C1.72,53.16,4.1,32.39,19,18a47.87,47.87,0,0,1,53.2-9.07C89.58,17,101.07,35.58,99.74,54A15.64,15.64,0,0,0,90.09,50Z"/><path d="M208.76,68.44h1.53a43.19,43.19,0,0,1-13.94,21.74c-6.73,5.55-15.23,8.26-25.63,8.15a43.27,43.27,0,0,1-21.26-5.55A37,37,0,0,1,136,78a44.16,44.16,0,0,1-4.84-20.44,39.78,39.78,0,0,1,5.79-21.38,38.79,38.79,0,0,1,16.65-14.64A48.93,48.93,0,0,1,174,16.82a37.87,37.87,0,0,1,20,5.67,37.46,37.46,0,0,1,13.35,14.77,37.73,37.73,0,0,1,2,4.49l-8,4A37.89,37.89,0,0,0,199,39.27a34.76,34.76,0,0,0-12.16-14.41,31.12,31.12,0,0,0-13.12-4.73,32.75,32.75,0,0,0-14.41.83,25.52,25.52,0,0,0-12,7.68c-5.07,6-7.67,14.17-7.67,24.56a56.22,56.22,0,0,0,3.89,20.44A36.92,36.92,0,0,0,156,90.18,31.56,31.56,0,0,0,176.74,96a33.2,33.2,0,0,0,19.73-8.26,34.72,34.72,0,0,0,4.14-4.26A52,52,0,0,0,208.76,68.44Z"/><path d="M226.36,66.79A41.53,41.53,0,0,0,229,81.91a24.58,24.58,0,0,0,7.68,10.75,18,18,0,0,0,11.93,3.89c6.74-.11,12.17-2.48,16.18-6.85A33.88,33.88,0,0,0,272,77.54h1.65c-.35,1.3-.82,2.48-1.3,3.78-5.07,11.46-13.93,17.24-26.57,17.24A29.37,29.37,0,0,1,231,94.66a26.18,26.18,0,0,1-9.57-10.39A31.27,31.27,0,0,1,218,69.86a28.84,28.84,0,0,1,4.13-15.12,27.7,27.7,0,0,1,11.7-10.28,34.68,34.68,0,0,1,14.29-3.3A25.82,25.82,0,0,1,271.6,55.57a32.58,32.58,0,0,1,2.95,8.62H226.36Zm.11-4.14h38.87c-.12-.35-.24-1.18-.6-2.36s-.82-2.24-1.18-3.31a22.32,22.32,0,0,0-7.67-10,19.12,19.12,0,0,0-8.15-3.42,21.36,21.36,0,0,0-9.1.59,15.42,15.42,0,0,0-7.56,5.43A27.1,27.1,0,0,0,226.47,62.65Z"/><path d="M333.61,59.23V97.38h-8.86v-38a31.62,31.62,0,0,0-1.06-8.86,10.19,10.19,0,0,0-4.14-5.91,12.61,12.61,0,0,0-6.61-1.77c-5.79.12-10.16,2.13-13.12,5.79a30.44,30.44,0,0,0-5.9,12.64V97.38h-8.74V46.47l8.74-4.72v14c3.42-9.57,9.68-14.41,19-14.64a25,25,0,0,1,11.81,1.89C330.42,45.64,333.37,51.08,333.61,59.23Z"/><path d="M374.12,91.24h1.54c-1.18,5-5.79,7.2-10.51,7.32-3.55,0-7.09-1.18-9.22-3.78-2.95-3.54-3.66-9.21-3.66-15V44.23H341.88V42.69h10.39V27.45l8.86-4.6V42.69H373.3v1.54H361.13v45c0,5.32,3.31,7.32,6.62,7A7.71,7.71,0,0,0,374.12,91.24Z"/><path d="M411.1,41.16a17.59,17.59,0,0,1,13,5.43l-5.55,4.25c-2-5.31-5.2-8-9.57-7.91a12.2,12.2,0,0,0-9.21,5.43A31.51,31.51,0,0,0,395,58.52V97.38h-8.74V46.47L395,41.75V52.61C398.46,44.82,403.77,41,411.1,41.16Z"/><path d="M478.31,62.54v36a6,6,0,0,1-3-1.18,11.11,11.11,0,0,1-3.66-4,16.48,16.48,0,0,1-2.13-7.56V80.37a49.75,49.75,0,0,1-8.15,9.57A30.8,30.8,0,0,1,452,96.08a26.37,26.37,0,0,1-11,2.48,13,13,0,0,1-8.39-3.07,14.13,14.13,0,0,1-4.49-7.09,16.17,16.17,0,0,1,.83-9.92c1.3-3.42,4-6.14,7.92-8.38a67.89,67.89,0,0,1,19.25-5.91l1.18-.24c5.55-1.06,9.57-2.48,12.28-4.37a9.57,9.57,0,0,0-.11-1.77c-.48-6-2.37-10-5.55-12.17a17,17,0,0,0-9.69-2.83,17.32,17.32,0,0,0-11.46,3.66c-3.19,2.6-5.2,6.73-6.26,12.52l-6.61-6.61c4.6-5.67,10.75-9.22,18.66-10.63s14.76-.36,20.91,3.07Q477.78,49.61,478.31,62.54Zm-8.75,14.64V61.71a28,28,0,0,1-7.2,2.95c-2,.59-3.9,1.07-5.67,1.42a41.33,41.33,0,0,0-8.15,2.48,23.55,23.55,0,0,0-7.68,5.32,14.8,14.8,0,0,0-3.54,13.34q1.59,7.27,8.86,8.15c5.19-.23,10-2.59,14.53-7A54,54,0,0,0,469.56,77.18Z"/><path d="M488.94,10.44l8.74-4.6V97.38h-8.74Z"/></g></g></svg>