<svg width="106" height="30" viewBox="0 0 106 30" fill="none" xmlns="http://www.w3.org/2000/svg">
<path d="M42.3506 21.165C41.5721 21.5628 40.7117 21.7734 39.8378 21.7801C38.964 21.7868 38.1005 21.5893 37.316 21.2034L35.8776 21.5278V9.83953C35.8776 7.93393 35.3981 6.6411 34.4199 6.396H37.328V12.7688C38.2438 9.28202 42.914 9.97409 44.832 13.5738C46.2944 16.3253 45.1244 19.7544 42.3506 21.165ZM43.5493 14.2274C41.7321 10.6229 37.9106 9.6617 37.3352 13.7685V19.776C38.7737 21.177 40.6916 21.6984 42.226 20.9078C44.283 19.8529 44.8703 16.866 43.5421 14.2274H43.5493Z" fill="#1F1F1F"/>
<path d="M65.9413 15.3136V21.5278L64.5436 20.7156C61.7362 22.5924 58.2983 21.7345 57.6774 19.6871C57.0565 17.6397 58.2288 16.133 61.005 15.0998C62.1534 14.6768 64.6228 13.6748 64.0522 11.8845C63.7237 11.1828 63.1675 10.7767 62.2301 10.7767C59.1662 10.7767 58.1737 13.1461 57.5096 15.6813C56.8215 18.3246 56.5506 20.9992 53.8415 21.6648C52.9175 21.878 51.9549 21.8547 51.0423 21.5969C50.1296 21.3391 49.2965 20.8552 48.6195 20.1898C47.9426 19.5244 47.4436 18.6989 47.1687 17.7893C46.8937 16.8798 46.8516 15.9155 47.0463 14.9854C47.2409 14.0553 47.666 13.1892 48.2824 12.4671C48.8988 11.745 49.6866 11.19 50.5733 10.8533C51.4599 10.5166 52.4169 10.409 53.3559 10.5405C54.2949 10.6721 55.1858 11.0384 55.9465 11.6058L55.1409 12.5886L49.6628 19.3171C51.1204 21.0616 53.1127 21.5519 53.959 21.35C56.3564 20.7781 55.8362 18.2261 56.5434 15.626C57.2507 13.0259 59.0104 10.4932 62.4818 10.4932C64.2775 10.4835 65.9413 10.9906 65.9413 15.3136ZM49.5261 19.1248L54.9875 12.43C53.5634 11.0723 51.6766 10.5869 50.1591 11.3558C48.0949 12.4084 47.5003 15.3953 48.8357 18.0314C49.0301 18.4174 49.2613 18.7835 49.5261 19.1248ZM64.5029 15.3136C64.5257 14.4478 64.4638 13.5818 64.3183 12.728C64.2464 14.0785 62.0839 14.9748 61.1657 15.3136C59.1015 16.073 58.5429 17.9569 58.96 19.2137C59.6241 21.2371 62.4435 21.9411 64.5029 20.4417V15.3136Z" fill="#1F1F1F"/>
<path d="M78.022 21.5279H75.1283V19.7617C74.409 20.9632 73.1792 21.7826 71.9037 21.7826C70.12 21.7826 68.4562 21.2756 68.4562 16.9549V14.1843C68.4562 12.2787 67.9767 10.9858 67.001 10.7407H71.3547C70.3814 10.981 69.9162 12.2787 69.8971 14.1843V16.9549C69.8971 19.6127 70.3526 21.2179 72.3688 21.2179C73.7234 21.2179 74.7183 20.1053 75.1307 19.2714V14.1843C75.1307 12.2787 74.6512 10.9858 73.6754 10.7407H78.0268C77.0558 10.981 76.5883 12.2787 76.5715 14.1843V18.082C76.5763 19.99 77.051 21.2804 78.022 21.5279Z" fill="#1F1F1F"/>
<path d="M82.4332 21.7778C80.2396 21.7778 79.5204 21.2659 79.5204 16.9477V12.2066C79.5204 10.1135 79.2614 9.02736 78.0651 8.76062H80.9612V10.4836H82.9942L82.7857 10.7768H80.9612V16.9477C80.9588 19.5742 80.9756 21.3861 82.4332 21.7778Z" fill="#1F1F1F"/>
<path d="M87.3312 21.5278H82.9799C83.9508 21.2875 84.4183 19.9899 84.4351 18.0819V14.1842C84.4351 12.2786 83.9556 10.9858 82.9799 10.7407H85.876V18.0819C85.8855 19.9899 86.3602 21.2803 87.3312 21.5278ZM84.0611 8.92398C84.0264 8.70956 84.0559 8.48964 84.146 8.29204C84.236 8.09444 84.3825 7.92804 84.5668 7.81389C84.7512 7.69973 84.9652 7.64295 85.1818 7.65073C85.3984 7.65851 85.6078 7.73049 85.7836 7.85757C85.9593 7.98466 86.0936 8.16114 86.1692 8.36469C86.2449 8.56824 86.2587 8.78971 86.2088 9.0011C86.1589 9.21249 86.0475 9.40429 85.8889 9.55225C85.7302 9.70021 85.5313 9.79768 85.3174 9.83233C85.0306 9.87876 84.7372 9.80917 84.5016 9.63884C84.266 9.4685 84.1076 9.21138 84.0611 8.92398Z" fill="#1F1F1F"/>
<path d="M95.4177 9.1979C95.8013 7.99639 93.857 6.54016 92.7134 6.98472C91.5699 7.42928 91.0856 8.93357 90.9729 10.4547H94.3653V10.7479H90.9585C90.9393 11.0795 90.9346 11.4159 90.9346 11.7571V18.0554C90.9346 19.961 91.414 21.2539 92.3922 21.499H88.0385C88.9974 21.2587 89.4769 19.961 89.4961 18.0554V11.7571C89.4955 11.4196 89.5179 11.0824 89.5632 10.7479H87.6812V10.4547H89.5992L89.5752 10.6637C89.9252 8.36165 91.3637 7.22022 92.5816 6.72279C93.2731 6.42658 94.0378 6.34679 94.7754 6.49388C95.513 6.64096 96.189 7.00807 96.7148 7.54703L95.4177 9.1979Z" fill="#1F1F1F"/>
<path d="M106 10.7118C105.027 10.916 103.864 11.4784 102.883 13.5642L99.3423 21.1794C99.2896 21.2923 99.2369 21.4028 99.1865 21.5134L99.1721 21.5398C97.8032 24.4378 96.6788 25.8652 95.0461 26.9322C94.221 27.4771 93.3038 27.8672 92.3394 28.0832V26.3675C93.1971 26.3261 94.0381 26.1146 94.8136 25.7451C96.5997 24.8872 97.7672 23.7602 98.8485 21.523L95.1229 13.593C94.3413 11.9109 93.3176 10.9497 92.3442 10.743H96.698C95.7246 10.9473 95.7774 11.9205 96.5637 13.593L99.5653 19.9971L102.588 13.5642C103.66 11.2837 103.106 10.868 102.294 10.7118H104.072L104.058 10.7406H104.089L104.101 10.7118H106Z" fill="#1F1F1F"/>
<path d="M20.4573 1.47462L20.2679 0.994019L19.7884 1.11177C18.486 1.41559 17.2763 2.03085 16.2627 2.905C15.249 3.77915 14.4615 4.88623 13.9674 6.13168C13.4741 4.88658 12.6875 3.77967 11.6746 2.90551C10.6618 2.03134 9.45294 1.41591 8.15127 1.11177L7.67178 0.994019L7.48478 1.47462C7.05505 2.5355 6.88159 3.68316 6.97855 4.82401C7.07551 5.96487 7.44014 7.06659 8.04271 8.03932C8.64528 9.01204 9.46871 9.82823 10.4459 10.4213C11.423 11.0144 12.5261 11.3675 13.6654 11.452H13.7517L13.9626 11.464L14.1712 11.452H14.2599C15.4002 11.369 16.5047 11.017 17.4833 10.4247C18.462 9.83243 19.2871 9.01662 19.8914 8.04385C20.4956 7.07108 20.8618 5.9689 20.9602 4.82725C21.0585 3.6856 20.8862 2.53681 20.4573 1.47462ZM13.3105 10.2336C12.4415 10.1058 11.6105 9.79076 10.8746 9.31011C10.1388 8.82946 9.51564 8.19465 9.04807 7.44941C8.5805 6.70417 8.27964 5.86621 8.16621 4.99323C8.05278 4.12025 8.12947 3.23299 8.39101 2.39258C9.84179 2.8478 11.1091 3.75662 12.0073 4.98597C12.9054 6.21533 13.3874 7.70062 13.3825 9.22437C13.3815 9.56204 13.3575 9.89925 13.3105 10.2336ZM14.6243 10.2336C14.5782 9.8992 14.555 9.56199 14.5548 9.22437C14.5491 7.70044 15.0308 6.21479 15.9291 4.98529C16.8274 3.75578 18.0951 2.84713 19.5463 2.39258C19.8078 3.23317 19.8844 4.1206 19.7708 4.99373C19.6573 5.86686 19.3562 6.70493 18.8884 7.45021C18.4206 8.19549 17.7971 8.83025 17.061 9.31077C16.3249 9.79129 15.4935 10.1061 14.6243 10.2336Z" fill="#1F1F1F"/>
<path d="M20.4573 28.5255L20.2679 29.0061L19.7884 28.8883C18.4847 28.5833 17.2743 27.9663 16.2605 27.0899C15.2468 26.2136 14.4599 25.1041 13.9674 23.8564C13.4732 25.1002 12.6861 26.2056 11.6733 27.0785C10.6606 27.9514 9.45217 28.5657 8.15126 28.8691L7.65978 28.9869L7.47278 28.5063C7.04428 27.4449 6.87215 26.297 6.97046 25.1562C7.06877 24.0154 7.43472 22.9141 8.03846 21.9421C8.6422 20.97 9.46663 20.1548 10.4445 19.5629C11.4224 18.971 12.526 18.6192 13.6653 18.5361H13.7517H13.9626H14.1712H14.2599C15.4012 18.6192 16.5068 18.9717 17.4861 19.565C18.4655 20.1583 19.2909 20.9755 19.8948 21.9497C20.4988 22.924 20.8641 24.0276 20.9611 25.1705C21.058 26.3134 20.8837 27.463 20.4525 28.5255H20.4573ZM13.3105 19.7545C12.4415 19.8823 11.6105 20.1973 10.8746 20.678C10.1388 21.1586 9.51563 21.7934 9.04806 22.5387C8.58049 23.2839 8.27963 24.1219 8.1662 24.9949C8.05277 25.8679 8.12946 26.7551 8.391 27.5955C9.84178 27.1403 11.1091 26.2315 12.0072 25.0021C12.9054 23.7728 13.3874 22.2875 13.3825 20.7637C13.3816 20.4261 13.3576 20.0888 13.3105 19.7545ZM14.6243 19.7545C14.5781 20.0889 14.5549 20.4261 14.5548 20.7637C14.5491 22.2877 15.0308 23.7733 15.9291 25.0028C16.8274 26.2323 18.0951 27.141 19.5462 27.5955C19.8078 26.7549 19.8844 25.8675 19.7708 24.9944C19.6573 24.1212 19.3562 23.2832 18.8884 22.5379C18.4205 21.7926 17.7971 21.1578 17.061 20.6773C16.3248 20.1968 15.4935 19.882 14.6243 19.7545Z" fill="#1F1F1F"/>
<path d="M0.479486 8.48909L0 8.68374L0.117474 9.16434C0.421064 10.4687 1.03516 11.68 1.90729 12.6948C2.77943 13.7095 3.88368 14.4976 5.12571 14.9917C3.88422 15.4866 2.78047 16.2749 1.90846 17.2896C1.03644 18.3042 0.422006 19.5151 0.117474 20.819L0 21.2996L0.479486 21.4894C1.53813 21.9191 2.68306 22.0921 3.82102 21.9943C4.95899 21.8965 6.05783 21.5307 7.02804 20.9266C7.99825 20.3226 8.81241 19.4974 9.40421 18.5182C9.99601 17.5391 10.3487 16.4337 10.4336 15.292C10.4336 15.2632 10.4336 15.232 10.4336 15.2031L10.4456 14.9917L10.4336 14.7826C10.4336 14.7562 10.4336 14.7249 10.4336 14.6961C10.3511 13.5532 10.0001 12.446 9.40915 11.4651C8.8182 10.4842 8.00412 9.6573 7.0334 9.052C6.06269 8.4467 4.96288 8.08017 3.82383 7.98234C2.68478 7.8845 1.53879 8.05815 0.479486 8.48909ZM9.21812 15.6525C9.09093 16.5237 8.77681 17.357 8.2974 18.0948C7.818 18.8327 7.18471 19.4576 6.44117 19.9265C5.69763 20.3954 4.8615 20.6972 3.99041 20.811C3.11931 20.9248 2.23394 20.848 1.3953 20.5859C1.84871 19.1311 2.75516 17.8601 3.98176 16.9593C5.20836 16.0585 6.69061 15.5753 8.2112 15.5804C8.54809 15.5814 8.88452 15.6054 9.21812 15.6525ZM9.21812 14.3356C8.88446 14.3819 8.54803 14.4052 8.2112 14.4053C6.69121 14.4108 5.20942 13.9282 3.98289 13.0284C2.75636 12.1285 1.84955 10.8586 1.3953 9.40464C1.98012 9.21999 2.58983 9.12678 3.20297 9.1283C4.66203 9.1288 6.07229 9.65501 7.17651 10.6109C8.28074 11.5669 9.00533 12.8888 9.21812 14.3356Z" fill="#1F1F1F"/>
<path d="M27.4674 8.48908L27.9469 8.67652L27.8102 9.16433C27.5073 10.4679 26.8943 11.6787 26.0235 12.6934C25.1527 13.7082 24.0499 14.4967 22.8092 14.9917C24.0493 15.4875 25.1516 16.2763 26.0223 17.2909C26.893 18.3054 27.5064 19.5158 27.8102 20.819L27.9277 21.2996L27.4482 21.4894C26.3899 21.9177 25.2457 22.0895 24.1087 21.991C22.9717 21.8925 21.8739 21.5264 20.9046 20.9225C19.9353 20.3186 19.122 19.494 18.5306 18.5156C17.9392 17.5372 17.5865 16.4328 17.5013 15.292V15.2031V14.9917V14.7826C17.5013 14.7562 17.5013 14.7249 17.5013 14.6961C17.5831 13.5517 17.9342 12.4429 18.5258 11.4607C19.1175 10.4785 19.9328 9.65072 20.9051 9.04517C21.8774 8.43963 22.979 8.07353 24.1196 7.97687C25.2602 7.88022 26.4075 8.05574 27.4674 8.48908ZM18.7167 15.6525C18.8439 16.5237 19.1581 17.357 19.6375 18.0948C20.1169 18.8327 20.7502 19.4576 21.4937 19.9265C22.2372 20.3954 23.0734 20.6972 23.9445 20.811C24.8156 20.9248 25.7009 20.848 26.5396 20.5859C26.0862 19.1311 25.1797 17.8601 23.9531 16.9593C22.7265 16.0585 21.2443 15.5753 19.7237 15.5804C19.3868 15.5813 19.0503 15.6053 18.7167 15.6525ZM18.7167 14.3356C19.0504 14.382 19.3868 14.4053 19.7237 14.4053C21.2437 14.4108 22.7254 13.9282 23.952 13.0283C25.1785 12.1285 26.0853 10.8586 26.5396 9.40463C25.9539 9.22014 25.3434 9.12694 24.7295 9.12829C23.2707 9.12887 21.8608 9.65516 20.7569 10.6111C19.6531 11.5671 18.929 12.889 18.7167 14.3356Z" fill="#1F1F1F"/>
</svg>
